<?xml version="1.0" encoding="UTF-8"?> <svg xmlns="http://www.w3.org/2000/svg" xmlns:xlink="http://www.w3.org/1999/xlink" viewBox="0 0 202 40.58"> <defs> <style>.cls-1{fill:url(#Безымянный_градиент_14);}.cls-2{fill:url(#Безымянный_градиент_14-2);}.cls-3{fill:#725888;}</style> <linearGradient id="Безымянный_градиент_14" x1="5.39" y1="34.21" x2="28.53" y2="11.07" gradientUnits="userSpaceOnUse"> <stop offset="0" stop-color="#725888"></stop> <stop offset="1" stop-color="#de12e4"></stop> </linearGradient> <linearGradient id="Безымянный_градиент_14-2" x1="7.56" y1="22.81" x2="26.21" y2="4.16" xlink:href="#Безымянный_градиент_14"></linearGradient> </defs> <title>Ресурс 1</title> <g id="Слой_2" data-name="Слой 2"> <g id="Слой_1-2" data-name="Слой 1"> <path class="cls-1" d="M4.1,16.38c0,.14,0,.25,0,.35v9.81a.55.55,0,0,0,.27.51c3.4,2.37,6.76,4.75,10.16,7.09a3,3,0,0,0,.32.19V19.59c.22-.08,3.8-.08,4.1,0V34.3c.16,0,.21,0,.29-.13,1-.7,2-1.38,3-2.08l7.17-5c.4-.27.32-.13.32-.65V16.36a10.22,10.22,0,0,1,1.35,0h2.72c0,.13,0,.21,0,.32v12a.5.5,0,0,1-.24.46c-.94.64-1.86,1.32-2.8,2-4.42,3.1-8.87,6.2-13.28,9.3l-.27.19c-.08-.11-.19-.19-.27-.3a2.44,2.44,0,0,1-.27.3l-.22-.16L4.66,32.17l-4.28-3a.64.64,0,0,1-.3-.59V16.41A33.3,33.3,0,0,1,4.1,16.38Z"></path> <path class="cls-2" d="M33.76,15.33H29.69c0-.11,0-.19,0-.27V14a.37.37,0,0,0-.21-.38c-1-.7-2.05-1.42-3.07-2.15l-7.17-5a3.84,3.84,0,0,1-.32-.22V18.32H14.82v-12l-.3.16c-1.13.78-2.23,1.56-3.37,2.34-2.26,1.59-4.52,3.16-6.76,4.75,0,0-.11.08-.16.1a.28.28,0,0,0-.13.27V15a.83.83,0,0,1,0,.27H0c0-.08,0-.19,0-.27V11.88a.51.51,0,0,1,.24-.46C2.45,9.89,4.66,8.33,6.87,6.79L16.33.16,16.57,0c.08.11.16.19.27.32A2.38,2.38,0,0,1,17.11,0c.05,0,.13.08.19.1L30.39,9.3c1,.7,2,1.42,3,2.12a.6.6,0,0,1,.29.57c0,1,0,2,0,3A1.09,1.09,0,0,1,33.76,15.33Z"></path> <path class="cls-3" d="M46.77,23.6c1-4,2-7.92,3.1-11.91h3.75c.29,0,.29,0,.35.27.64,2.59,1.26,5.18,1.91,7.79.32,1.27.62,2.56.94,3.83a1.28,1.28,0,0,0,.11.24,16.88,16.88,0,0,0,.46-2c.16-.68.3-1.35.43-2s.3-1.35.43-2,.3-1.35.43-2,.3-1.35.43-2.05.3-1.35.43-2h3.4c0,.13,0,.27-.08.37l-4,16.74a.86.86,0,0,1,0,.13c0,.11-.08.14-.16.14H55.26c0-.08,0-.19-.08-.27L52,16.36c0-.09,0-.22-.17-.27-1.13,4.33-2.23,8.65-3.36,13l-.3,0H45c-.29,0-.29,0-.38-.29-.59-2.51-1.15-5-1.75-7.55s-1.24-5.33-1.86-8c-.1-.43-.21-.86-.29-1.29a.74.74,0,0,1,0-.27h3.15c.3,0,.3,0,.35.27.3,1.43.62,2.86.92,4.26.51,2.37,1,4.77,1.54,7.14a.8.8,0,0,1,0,.21C46.72,23.6,46.75,23.6,46.77,23.6Z"></path> <path class="cls-3" d="M80.69,11.69h7.44a12.44,12.44,0,0,1,2.43.19A4.27,4.27,0,0,1,94,15.14a4.13,4.13,0,0,1-2,4.56l-.24.13A1.42,1.42,0,0,1,92,20a4.79,4.79,0,0,1,1.78,1.1,4.18,4.18,0,0,1,1.13,2.7A5.42,5.42,0,0,1,94,27a4.41,4.41,0,0,1-3,1.91c-.4,0-.83.08-1.24.11-2.91.1-5.82.05-8.7.05h-.16a.14.14,0,0,1-.16-.16V12A2,2,0,0,1,80.69,11.69Zm6,14.53h1.26c.51,0,1,0,1.51-.08a2,2,0,0,0,1.83-1.54,3.71,3.71,0,0,0,.08-.81,2.14,2.14,0,0,0-1.88-2.15,11,11,0,0,0-1.91-.14H84.22c-.18,0-.21,0-.21.22v4.36a.14.14,0,0,0,.16.16h.19C85.17,26.22,85.92,26.22,86.68,26.22Zm-.08-11.7c-.73,0-1.46,0-2.19,0h-.19a.14.14,0,0,0-.16.16v3.77c0,.14.06.19.19.17h3.5a7.46,7.46,0,0,0,1.35-.11,1.89,1.89,0,0,0,1.62-1.46,1.91,1.91,0,0,0,0-.89,1.67,1.67,0,0,0-1.1-1.42,2.53,2.53,0,0,0-.78-.17C88.1,14.55,87.35,14.55,86.6,14.52Z"></path> <path class="cls-3" d="M112.41,11.69h7.76a16.4,16.4,0,0,1,2.53.22,4,4,0,0,1,3.2,2.72A5.57,5.57,0,0,1,126,18.3a4.19,4.19,0,0,1-2.51,2.64,8.26,8.26,0,0,1-1.37.4l-.35.08a.71.71,0,0,0,.24.16,7.21,7.21,0,0,1,2.29,2.21l1.94,3.05c.4.64.81,1.32,1.21,2,.06.08.08.16.16.27-.1,0-.19,0-.27,0h-3.5a.41.41,0,0,1-.4-.22c-1-1.45-1.92-2.93-2.86-4.39-.32-.48-.67-.94-1-1.43a3,3,0,0,0-.37-.43,2.73,2.73,0,0,0-1.81-.81c-.46,0-.89,0-1.35,0l-.26,0V29.1a8.43,8.43,0,0,1-.87,0h-2.48C112.38,28.89,112.35,12,112.41,11.69Zm3.39,7.39.3,0H119a14,14,0,0,0,2.15-.13,1.93,1.93,0,0,0,1.54-1.32,3,3,0,0,0,.11-1.08,2,2,0,0,0-1.46-1.8,3.42,3.42,0,0,0-1-.11c-1.43,0-2.86,0-4.26,0-.05,0-.13,0-.21,0C115.8,16.09,115.8,17.57,115.8,19.08Z"></path> <path class="cls-3" d="M151.23,29.07c-.11,0-.19,0-.27,0h-2.72a.12.12,0,0,1-.13-.13V12a2,2,0,0,1,0-.32c.11,0,.16,0,.25,0h2.8a.37.37,0,0,1,.35.22l2.85,4.8,3.8,6.36a2.55,2.55,0,0,1,.19.26,1.13,1.13,0,0,1,.06-.21V12a1.77,1.77,0,0,1,0-.32h3.07c.06.19.06,17,0,17.38l-.26,0h-2.83a.4.4,0,0,1-.41-.24c-1.7-2.86-3.42-5.69-5.14-8.52-.46-.78-.95-1.56-1.41-2.34a1.92,1.92,0,0,1-.16-.27,1.91,1.91,0,0,0-.05.21V28.72A1.31,1.31,0,0,0,151.23,29.07Z"></path> <path class="cls-3" d="M145.33,20.42a11.35,11.35,0,0,1-.62,3.91A7.3,7.3,0,0,1,140.08,29a8.38,8.38,0,0,1-3,.43,8.93,8.93,0,0,1-2.91-.43,7.28,7.28,0,0,1-4.72-4.77,10.86,10.86,0,0,1-.51-2.56,20,20,0,0,1,0-2.45,8.9,8.9,0,0,1,1.19-4.05,7.13,7.13,0,0,1,5.55-3.63,11,11,0,0,1,2.5-.06,7.52,7.52,0,0,1,6.69,5.36,10.88,10.88,0,0,1,.45,2.46C145.3,19.64,145.33,20.05,145.33,20.42Zm-3.47-.05c0-.38,0-.75-.06-1.1a6.5,6.5,0,0,0-.46-2.05,4.27,4.27,0,0,0-2.61-2.59,4.86,4.86,0,0,0-2.18-.21,4.09,4.09,0,0,0-2.83,1.42,5.07,5.07,0,0,0-1.05,2,10,10,0,0,0-.3,2.93,8.79,8.79,0,0,0,.41,2.51,4.66,4.66,0,0,0,2.37,2.78,4.56,4.56,0,0,0,2.2.43,4.21,4.21,0,0,0,2.05-.6,4.66,4.66,0,0,0,2-2.61A12.37,12.37,0,0,0,141.86,20.37Z"></path> <path class="cls-3" d="M201.48,16.63l-3.34.16c0-.11,0-.19-.08-.27a3,3,0,0,0-.22-.68,2.18,2.18,0,0,0-1.61-1.42,5,5,0,0,0-2.83.08,3.06,3.06,0,0,0-.7.35,1.37,1.37,0,0,0-.06,2.29,3.13,3.13,0,0,0,.65.35,13.07,13.07,0,0,0,2.4.75,20.17,20.17,0,0,1,3,.94,5.76,5.76,0,0,1,1.92,1.24,4.77,4.77,0,0,1,1.32,3,5.25,5.25,0,0,1-.25,2.32A5,5,0,0,1,198.36,29a9.72,9.72,0,0,1-2.35.4,16.44,16.44,0,0,1-1.72,0,7.11,7.11,0,0,1-3.16-.86,5.51,5.51,0,0,1-2.5-3.12,8.12,8.12,0,0,1-.4-1.67V23.5l3.26-.33a1.41,1.41,0,0,0,.1.38,10.26,10.26,0,0,0,.41,1.13,3,3,0,0,0,2.23,1.75,5.68,5.68,0,0,0,2.59-.1,2.54,2.54,0,0,0,1.37-1,2,2,0,0,0,.38-1.68,1.6,1.6,0,0,0-.62-.94,3.42,3.42,0,0,0-1.08-.54l-2.66-.72a13.39,13.39,0,0,1-2.78-1A4.72,4.72,0,0,1,189,17.7a4.64,4.64,0,0,1,2.54-5.63,7.72,7.72,0,0,1,2.5-.62,13.62,13.62,0,0,1,2,0,7.24,7.24,0,0,1,2.51.62,4.86,4.86,0,0,1,2.8,3.69c0,.25,0,.49.08.7Z"></path> <path class="cls-3" d="M76.68,21.39H68.54c-.37,0-.37,0-.37.38V26c0,.21,0,.24.24.24h9.27v2.83c-.19.05-12.53.08-12.85,0,0-.1,0-.24,0-.35V12a1.55,1.55,0,0,1,0-.35H77.35c0,1,0,1.92,0,2.89H68.54c-.37,0-.37-.06-.37.37V18.3c0,.16,0,.18.21.21h8c.4,0,.4,0,.4.38V21C76.71,21.18,76.71,21.26,76.68,21.39Z"></path> <path class="cls-3" d="M186,16.46l-3.31.81a2.83,2.83,0,0,0-.09-.27,3.77,3.77,0,0,0-1.05-1.75,3.54,3.54,0,0,0-2.5-.92,3.89,3.89,0,0,0-3.24,1.59,5,5,0,0,0-.78,1.76,12,12,0,0,0-.27,2.93,9.32,9.32,0,0,0,.33,2.62,4.4,4.4,0,0,0,1.18,2.15,3.73,3.73,0,0,0,2.51,1.05,3.45,3.45,0,0,0,2.53-.83,3.66,3.66,0,0,0,1-1.32c.19-.41.3-.84.46-1.27,0-.08.05-.16.08-.27L186,23.79v.08a8.38,8.38,0,0,1-1.4,3,5.81,5.81,0,0,1-3,2.13,8.33,8.33,0,0,1-4.82.08,7,7,0,0,1-4.53-3.8,8.9,8.9,0,0,1-.89-3.07,15.26,15.26,0,0,1-.08-2.34,10.37,10.37,0,0,1,.89-4.12,7.17,7.17,0,0,1,5.47-4.26,8.48,8.48,0,0,1,3.94.19,6,6,0,0,1,4.23,4.09c0,.16.1.35.16.51A.21.21,0,0,0,186,16.46Z"></path> <path class="cls-3" d="M105.05,29.07c-.11,0-.19,0-.27,0h-3a.13.13,0,0,1-.14-.13V15a3.47,3.47,0,0,0,0-.44h-5a15.82,15.82,0,0,1,0-2.85l0,0,0,0H110a.09.09,0,0,1,.08,0,21,21,0,0,1,0,2.86h-4.66c-.35,0-.35,0-.35.35V28.7A1.54,1.54,0,0,0,105.05,29.07Z"></path> <path class="cls-3" d="M168.5,29.07h-3.29c-.05-.18-.08-17,0-17.35.16-.05,3-.08,3.31,0C168.53,11.91,168.56,28.75,168.5,29.07Z"></path> </g> </g> </svg> 